<svg xmlns="http://www.w3.org/2000/svg" xmlns:xlink="http://www.w3.org/1999/xlink" width="187" zoomAndPan="magnify" viewBox="0 0 140.25 43.499998" height="58" preserveAspectRatio="xMidYMid meet" version="1.0"><defs><g/><clipPath id="1c13033201"><path d="M 0.425781 4.300781 L 26 4.300781 L 26 35.441406 L 0.425781 35.441406 Z M 0.425781 4.300781 " clip-rule="nonzero"/></clipPath><clipPath id="10de5033ba"><path d="M 18 16 L 30.828125 16 L 30.828125 35.441406 L 18 35.441406 Z M 18 16 " clip-rule="nonzero"/></clipPath><clipPath id="4e8f0f5f79"><path d="M 29 5 L 139.082031 5 L 139.082031 33 L 29 33 Z M 29 5 " clip-rule="nonzero"/></clipPath><clipPath id="62f030a079"><rect x="0" width="111" y="0" height="28"/></clipPath><clipPath id="d4d4a8ffe7"><path d="M 0.117188 2 L 11 2 L 11 13 L 0.117188 13 Z M 0.117188 2 " clip-rule="nonzero"/></clipPath><clipPath id="2ab7e8c89c"><path d="M 95 6 L 100.722656 6 L 100.722656 10 L 95 10 Z M 95 6 " clip-rule="nonzero"/></clipPath><clipPath id="40a08a6d56"><rect x="0" width="101" y="0" height="15"/></clipPath></defs><g clip-path="url(#1c13033201)"><path fill="#3f71be" d="M 5.890625 35.679688 L 10.796875 23.652344 L 15.71875 29.8125 L 23.554688 12.515625 L 25.382812 13.34375 L 24.492188 4.308594 L 17.113281 9.597656 L 18.945312 10.429688 L 14.519531 20.207031 L 9.371094 13.765625 L 0.425781 35.679688 L 5.890625 35.679688 " fill-opacity="1" fill-rule="nonzero"/></g><g clip-path="url(#10de5033ba)"><path fill="#71bf47" d="M 25.527344 35.679688 L 30.988281 35.679688 L 23.050781 16.226562 L 18.46875 26.339844 L 20.617188 23.652344 L 25.527344 35.679688 " fill-opacity="1" fill-rule="nonzero"/></g><g clip-path="url(#4e8f0f5f79)"><g transform="matrix(1, 0, 0, 1, 29, 5)"><g clip-path="url(#62f030a079)"><g fill="#3f71be" fill-opacity="1"><g transform="translate(1.069836, 20.439361)"><g><path d="M 13.1875 -13.21875 L 8.328125 0 L 5.109375 0 L 0.265625 -13.21875 L 3.109375 -13.21875 L 6.734375 -2.703125 L 10.359375 -13.21875 Z M 13.1875 -13.21875 "/></g></g></g><g fill="#3f71be" fill-opacity="1"><g transform="translate(14.531946, 20.439361)"><g><path d="M 15.71875 -13.21875 L 15.71875 0 L 13.0625 0 L 13.0625 -8.59375 L 9.53125 0 L 7.515625 0 L 3.953125 -8.59375 L 3.953125 0 L 1.3125 0 L 1.3125 -13.21875 L 4.3125 -13.21875 L 8.515625 -3.390625 L 12.71875 -13.21875 Z M 15.71875 -13.21875 "/></g></g></g><g fill="#3f71be" fill-opacity="1"><g transform="translate(31.553658, 20.439361)"><g><path d="M 0.65625 -6.625 C 0.65625 -7.925781 0.945312 -9.09375 1.53125 -10.125 C 2.125 -11.15625 2.925781 -11.957031 3.9375 -12.53125 C 4.957031 -13.101562 6.097656 -13.390625 7.359375 -13.390625 C 8.835938 -13.390625 10.132812 -13.007812 11.25 -12.25 C 12.363281 -11.488281 13.140625 -10.441406 13.578125 -9.109375 L 10.53125 -9.109375 C 10.226562 -9.742188 9.800781 -10.21875 9.25 -10.53125 C 8.695312 -10.84375 8.0625 -11 7.34375 -11 C 6.570312 -11 5.882812 -10.816406 5.28125 -10.453125 C 4.6875 -10.097656 4.222656 -9.59375 3.890625 -8.9375 C 3.554688 -8.28125 3.390625 -7.507812 3.390625 -6.625 C 3.390625 -5.757812 3.554688 -4.992188 3.890625 -4.328125 C 4.222656 -3.660156 4.6875 -3.144531 5.28125 -2.78125 C 5.882812 -2.425781 6.570312 -2.25 7.34375 -2.25 C 8.0625 -2.25 8.695312 -2.410156 9.25 -2.734375 C 9.800781 -3.054688 10.226562 -3.535156 10.53125 -4.171875 L 13.578125 -4.171875 C 13.140625 -2.816406 12.363281 -1.765625 11.25 -1.015625 C 10.144531 -0.265625 8.847656 0.109375 7.359375 0.109375 C 6.097656 0.109375 4.957031 -0.175781 3.9375 -0.75 C 2.925781 -1.320312 2.125 -2.117188 1.53125 -3.140625 C 0.945312 -4.160156 0.65625 -5.320312 0.65625 -6.625 Z M 0.65625 -6.625 "/></g></g></g><g fill="#71bf47" fill-opacity="1"><g transform="translate(46.095936, 20.439361)"><g/></g></g><g fill="#71bf47" fill-opacity="1"><g transform="translate(50.602242, 20.439361)"><g><path d="M 15.71875 -13.21875 L 15.71875 0 L 13.0625 0 L 13.0625 -8.59375 L 9.53125 0 L 7.515625 0 L 3.953125 -8.59375 L 3.953125 0 L 1.3125 0 L 1.3125 -13.21875 L 4.3125 -13.21875 L 8.515625 -3.390625 L 12.71875 -13.21875 Z M 15.71875 -13.21875 "/></g></g></g><g fill="#71bf47" fill-opacity="1"><g transform="translate(67.623954, 20.439361)"><g><path d="M 3.953125 -11.078125 L 3.953125 -7.765625 L 8.40625 -7.765625 L 8.40625 -5.65625 L 3.953125 -5.65625 L 3.953125 -2.15625 L 8.96875 -2.15625 L 8.96875 0 L 1.3125 0 L 1.3125 -13.234375 L 8.96875 -13.234375 L 8.96875 -11.078125 Z M 3.953125 -11.078125 "/></g></g></g><g fill="#71bf47" fill-opacity="1"><g transform="translate(77.696869, 20.439361)"><g><path d="M 5.921875 -13.21875 C 7.316406 -13.21875 8.539062 -12.945312 9.59375 -12.40625 C 10.644531 -11.863281 11.457031 -11.085938 12.03125 -10.078125 C 12.601562 -9.078125 12.890625 -7.914062 12.890625 -6.59375 C 12.890625 -5.269531 12.601562 -4.109375 12.03125 -3.109375 C 11.457031 -2.117188 10.644531 -1.351562 9.59375 -0.8125 C 8.539062 -0.269531 7.316406 0 5.921875 0 L 1.3125 0 L 1.3125 -13.21875 Z M 5.828125 -2.25 C 7.222656 -2.25 8.296875 -2.628906 9.046875 -3.390625 C 9.804688 -4.148438 10.1875 -5.21875 10.1875 -6.59375 C 10.1875 -7.96875 9.804688 -9.039062 9.046875 -9.8125 C 8.296875 -10.59375 7.222656 -10.984375 5.828125 -10.984375 L 3.953125 -10.984375 L 3.953125 -2.25 Z M 5.828125 -2.25 "/></g></g></g><g fill="#71bf47" fill-opacity="1"><g transform="translate(91.272584, 20.439361)"><g><path d="M 3.953125 -13.21875 L 3.953125 0 L 1.3125 0 L 1.3125 -13.21875 Z M 3.953125 -13.21875 "/></g></g></g><g fill="#71bf47" fill-opacity="1"><g transform="translate(96.536249, 20.439361)"><g><path d="M 9.40625 -2.515625 L 4.140625 -2.515625 L 3.28125 0 L 0.5 0 L 5.25 -13.234375 L 8.328125 -13.234375 L 13.078125 0 L 10.28125 0 Z M 8.6875 -4.640625 L 6.78125 -10.171875 L 4.859375 -4.640625 Z M 8.6875 -4.640625 "/></g></g></g></g></g></g><g transform="matrix(1, 0, 0, 1, 34, 24)"><g clip-path="url(#40a08a6d56)"><g clip-path="url(#d4d4a8ffe7)"><g fill="#545454" fill-opacity="1"><g transform="translate(0.198107, 9.701825)"><g><path d="M 3.640625 2.75 C 3.460938 2.75 3.28125 2.707031 3.09375 2.625 C 2.90625 2.539062 2.75 2.425781 2.625 2.28125 C 2.5 2.132812 2.4375 1.976562 2.4375 1.8125 C 2.4375 1.65625 2.515625 1.578125 2.671875 1.578125 C 2.703125 1.578125 2.726562 1.578125 2.75 1.578125 C 2.769531 1.585938 2.796875 1.597656 2.828125 1.609375 C 2.910156 1.921875 3 2.148438 3.09375 2.296875 C 3.195312 2.441406 3.390625 2.515625 3.671875 2.515625 C 4.117188 2.515625 4.609375 2.207031 5.140625 1.59375 C 5.671875 0.976562 6.273438 0.0703125 6.953125 -1.125 L 8.90625 -4.609375 L 7.78125 -3.40625 C 7.3125 -2.914062 6.925781 -2.515625 6.625 -2.203125 C 6.320312 -1.890625 6.097656 -1.660156 5.953125 -1.515625 C 5.691406 -1.253906 5.429688 -1.007812 5.171875 -0.78125 C 4.921875 -0.5625 4.671875 -0.382812 4.421875 -0.25 C 4.179688 -0.113281 3.929688 -0.046875 3.671875 -0.046875 C 3.253906 -0.046875 3.046875 -0.285156 3.046875 -0.765625 C 3.046875 -1.347656 3.289062 -1.945312 3.78125 -2.5625 C 3.96875 -2.78125 4.148438 -2.992188 4.328125 -3.203125 C 4.503906 -3.421875 4.6875 -3.644531 4.875 -3.875 C 5.457031 -4.613281 5.882812 -5.21875 6.15625 -5.6875 C 6.257812 -5.863281 6.335938 -6.019531 6.390625 -6.15625 C 6.441406 -6.289062 6.46875 -6.414062 6.46875 -6.53125 C 6.46875 -6.6875 6.398438 -6.800781 6.265625 -6.875 C 6.128906 -6.957031 5.910156 -7 5.609375 -7 C 4.835938 -7 3.773438 -6.535156 2.421875 -5.609375 C 2.109375 -5.398438 1.8125 -5.140625 1.53125 -4.828125 C 1.25 -4.523438 1.019531 -4.207031 0.84375 -3.875 C 0.664062 -3.550781 0.578125 -3.234375 0.578125 -2.921875 C 0.578125 -2.597656 0.671875 -2.363281 0.859375 -2.21875 C 1.054688 -2.082031 1.296875 -2.015625 1.578125 -2.015625 C 1.953125 -2.015625 2.363281 -2.175781 2.8125 -2.5 C 3.332031 -2.851562 3.628906 -3.039062 3.703125 -3.0625 C 3.628906 -2.789062 3.34375 -2.492188 2.84375 -2.171875 C 2.289062 -1.835938 1.773438 -1.671875 1.296875 -1.671875 C 0.921875 -1.671875 0.632812 -1.800781 0.4375 -2.0625 C 0.25 -2.320312 0.15625 -2.625 0.15625 -2.96875 C 0.15625 -3.957031 0.875 -4.960938 2.3125 -5.984375 C 2.601562 -6.191406 2.953125 -6.382812 3.359375 -6.5625 C 3.765625 -6.75 4.179688 -6.894531 4.609375 -7 C 5.035156 -7.113281 5.421875 -7.171875 5.765625 -7.171875 C 6.078125 -7.171875 6.347656 -7.109375 6.578125 -6.984375 C 6.804688 -6.867188 6.921875 -6.671875 6.921875 -6.390625 C 6.921875 -6.066406 6.710938 -5.570312 6.296875 -4.90625 C 6.109375 -4.625 5.859375 -4.273438 5.546875 -3.859375 C 5.234375 -3.453125 4.851562 -2.984375 4.40625 -2.453125 C 4.21875 -2.242188 4.050781 -1.96875 3.90625 -1.625 C 3.75 -1.289062 3.671875 -1.023438 3.671875 -0.828125 C 3.671875 -0.628906 3.75 -0.53125 3.90625 -0.53125 C 4.0625 -0.53125 4.296875 -0.644531 4.609375 -0.875 C 5.492188 -1.5 6.398438 -2.289062 7.328125 -3.25 C 8.148438 -4.082031 8.769531 -4.800781 9.1875 -5.40625 C 9.476562 -5.832031 9.789062 -6.046875 10.125 -6.046875 C 10.238281 -6.046875 10.296875 -6.007812 10.296875 -5.9375 C 10.296875 -5.925781 10.296875 -5.910156 10.296875 -5.890625 C 10.296875 -5.878906 10.289062 -5.867188 10.28125 -5.859375 C 9.894531 -5.179688 9.390625 -4.316406 8.765625 -3.265625 C 8.148438 -2.210938 7.414062 -0.960938 6.5625 0.484375 C 6.320312 0.867188 6.039062 1.234375 5.71875 1.578125 C 5.40625 1.929688 5.070312 2.210938 4.71875 2.421875 C 4.363281 2.640625 4.003906 2.75 3.640625 2.75 Z M 3.640625 2.75 "/></g></g></g></g><g fill="#545454" fill-opacity="1"><g transform="translate(9.758555, 9.701825)"><g><path d="M 0.46875 0.015625 C 0.28125 0.015625 0.132812 -0.0664062 0.03125 -0.234375 C -0.0625 -0.398438 -0.109375 -0.5625 -0.109375 -0.71875 C -0.109375 -1.15625 0.203125 -1.765625 0.828125 -2.546875 C 1.472656 -3.335938 1.988281 -3.734375 2.375 -3.734375 C 2.738281 -3.734375 2.921875 -3.535156 2.921875 -3.140625 C 2.921875 -3.085938 2.914062 -3.023438 2.90625 -2.953125 C 2.894531 -2.890625 2.882812 -2.820312 2.875 -2.75 C 2.882812 -2.726562 2.921875 -2.71875 2.984375 -2.71875 C 3.179688 -2.71875 3.410156 -2.785156 3.671875 -2.921875 C 3.671875 -2.804688 3.382812 -2.628906 2.8125 -2.390625 C 2.894531 -2.148438 2.660156 -1.695312 2.109375 -1.03125 C 1.535156 -0.332031 1.046875 0.015625 0.640625 0.015625 Z M 0.65625 -0.296875 C 0.96875 -0.296875 1.367188 -0.582031 1.859375 -1.15625 C 2.328125 -1.71875 2.5625 -2.117188 2.5625 -2.359375 C 2.445312 -2.429688 2.300781 -2.597656 2.125 -2.859375 C 1.875 -2.859375 1.519531 -2.5625 1.0625 -1.96875 C 0.601562 -1.394531 0.382812 -0.953125 0.40625 -0.640625 C 0.40625 -0.410156 0.488281 -0.296875 0.65625 -0.296875 Z M 0.65625 -0.296875 "/></g></g></g><g fill="#545454" fill-opacity="1"><g transform="translate(12.804457, 9.701825)"><g><path d="M 0.515625 0.125 C 0.179688 0.125 0.015625 -0.0820312 0.015625 -0.5 C 0.015625 -0.65625 0.0625 -0.84375 0.15625 -1.0625 C 0.257812 -1.289062 0.398438 -1.523438 0.578125 -1.765625 C 0.578125 -1.765625 0.507812 -1.703125 0.375 -1.578125 C 0.25 -1.460938 0.109375 -1.304688 -0.046875 -1.109375 C -0.078125 -1.085938 -0.113281 -1.078125 -0.15625 -1.078125 C -0.1875 -1.078125 -0.203125 -1.09375 -0.203125 -1.125 C -0.203125 -1.164062 -0.171875 -1.226562 -0.109375 -1.3125 L 1.390625 -3.0625 C 1.578125 -3.28125 1.78125 -3.390625 2 -3.390625 C 2.164062 -3.390625 2.25 -3.328125 2.25 -3.203125 C 2.25 -3.148438 2.226562 -3.101562 2.1875 -3.0625 C 2.050781 -2.925781 1.882812 -2.738281 1.6875 -2.5 C 1.488281 -2.257812 1.296875 -2.003906 1.109375 -1.734375 C 0.921875 -1.460938 0.757812 -1.203125 0.625 -0.953125 C 0.5 -0.703125 0.4375 -0.5 0.4375 -0.34375 C 0.4375 -0.21875 0.484375 -0.15625 0.578125 -0.15625 C 0.628906 -0.15625 0.707031 -0.171875 0.8125 -0.203125 C 0.914062 -0.242188 1.054688 -0.328125 1.234375 -0.453125 C 1.421875 -0.585938 1.640625 -0.785156 1.890625 -1.046875 C 1.941406 -1.085938 2.0625 -1.21875 2.25 -1.4375 C 2.4375 -1.65625 2.6875 -1.96875 3 -2.375 C 3.5625 -3.070312 3.929688 -3.421875 4.109375 -3.421875 C 4.347656 -3.421875 4.476562 -3.328125 4.5 -3.140625 C 4.507812 -3.066406 4.359375 -2.851562 4.046875 -2.5 C 3.628906 -2 3.347656 -1.640625 3.203125 -1.421875 C 2.921875 -1.003906 2.78125 -0.679688 2.78125 -0.453125 C 2.78125 -0.296875 2.832031 -0.21875 2.9375 -0.21875 C 3.039062 -0.21875 3.175781 -0.269531 3.34375 -0.375 C 3.519531 -0.476562 3.703125 -0.609375 3.890625 -0.765625 C 4.078125 -0.929688 4.257812 -1.101562 4.4375 -1.28125 C 4.613281 -1.457031 4.769531 -1.625 4.90625 -1.78125 C 4.945312 -1.832031 4.988281 -1.859375 5.03125 -1.859375 C 5.070312 -1.859375 5.09375 -1.835938 5.09375 -1.796875 C 5.09375 -1.773438 5.085938 -1.75 5.078125 -1.71875 C 5.078125 -1.695312 5.054688 -1.664062 5.015625 -1.625 C 4.898438 -1.5 4.753906 -1.335938 4.578125 -1.140625 C 4.398438 -0.953125 4.203125 -0.765625 3.984375 -0.578125 C 3.773438 -0.390625 3.570312 -0.234375 3.375 -0.109375 C 3.1875 0.015625 3.023438 0.078125 2.890625 0.078125 C 2.722656 0.078125 2.578125 0.0351562 2.453125 -0.046875 C 2.328125 -0.140625 2.265625 -0.269531 2.265625 -0.4375 C 2.265625 -0.59375 2.289062 -0.75 2.34375 -0.90625 C 2.394531 -1.070312 2.4375 -1.210938 2.46875 -1.328125 C 2.125 -0.929688 1.820312 -0.628906 1.5625 -0.421875 C 1.3125 -0.210938 1.097656 -0.0703125 0.921875 0 C 0.742188 0.0820312 0.609375 0.125 0.515625 0.125 Z M 0.515625 0.125 "/></g></g></g><g fill="#545454" fill-opacity="1"><g transform="translate(17.41125, 9.701825)"><g><path d="M 2.21875 0.046875 C 1.90625 0.046875 1.691406 -0.03125 1.578125 -0.1875 C 1.460938 -0.351562 1.40625 -0.570312 1.40625 -0.84375 C 1.40625 -1.144531 1.5 -1.507812 1.6875 -1.9375 C 1.757812 -2.09375 1.832031 -2.238281 1.90625 -2.375 C 1.988281 -2.507812 2.070312 -2.632812 2.15625 -2.75 C 2.125 -2.75 2.097656 -2.75 2.078125 -2.75 C 2.054688 -2.75 2.035156 -2.75 2.015625 -2.75 C 1.835938 -2.75 1.691406 -2.867188 1.578125 -3.109375 L 0.78125 -2.078125 C 0.351562 -1.515625 0.09375 -1.234375 0 -1.234375 C -0.03125 -1.234375 -0.046875 -1.25 -0.046875 -1.28125 C -0.046875 -1.3125 -0.03125 -1.359375 0 -1.421875 C 0.0195312 -1.460938 0.0625 -1.519531 0.125 -1.59375 C 0.40625 -1.914062 0.660156 -2.226562 0.890625 -2.53125 C 1.117188 -2.84375 1.3125 -3.148438 1.46875 -3.453125 C 1.632812 -4.078125 1.84375 -4.390625 2.09375 -4.390625 C 2.257812 -4.390625 2.34375 -4.3125 2.34375 -4.15625 C 2.34375 -4.019531 2.253906 -3.84375 2.078125 -3.625 C 1.898438 -3.394531 1.8125 -3.28125 1.8125 -3.28125 C 1.8125 -3.125 1.921875 -3.046875 2.140625 -3.046875 C 2.273438 -3.046875 2.421875 -3.09375 2.578125 -3.1875 L 2.859375 -3.359375 C 2.878906 -3.367188 2.898438 -3.375 2.921875 -3.375 C 3.015625 -3.375 3.09375 -3.335938 3.15625 -3.265625 C 3.21875 -3.191406 3.238281 -3.125 3.21875 -3.0625 L 2.46875 -2.125 C 2.007812 -1.53125 1.78125 -1.050781 1.78125 -0.6875 C 1.78125 -0.363281 1.9375 -0.203125 2.25 -0.203125 C 2.46875 -0.203125 2.703125 -0.265625 2.953125 -0.390625 C 3.203125 -0.523438 3.441406 -0.6875 3.671875 -0.875 C 3.910156 -1.070312 4.109375 -1.257812 4.265625 -1.4375 L 4.53125 -1.75 C 4.539062 -1.757812 4.554688 -1.773438 4.578125 -1.796875 C 4.609375 -1.816406 4.628906 -1.828125 4.640625 -1.828125 C 4.691406 -1.828125 4.71875 -1.800781 4.71875 -1.75 C 4.71875 -1.738281 4.707031 -1.710938 4.6875 -1.671875 C 4.675781 -1.640625 4.65625 -1.601562 4.625 -1.5625 L 4.265625 -1.171875 C 4.097656 -0.984375 3.894531 -0.789062 3.65625 -0.59375 C 3.414062 -0.40625 3.164062 -0.25 2.90625 -0.125 C 2.65625 -0.0078125 2.425781 0.046875 2.21875 0.046875 Z M 2.21875 0.046875 "/></g></g></g><g fill="#545454" fill-opacity="1"><g transform="translate(21.682277, 9.701825)"><g/></g></g><g fill="#545454" fill-opacity="1"><g transform="translate(23.828501, 9.701825)"><g/></g></g><g fill="#545454" fill-opacity="1"><g transform="translate(25.975449, 9.701825)"><g><path d="M 4.625 0.625 C 3.414062 0.6875 2.550781 0.390625 2.03125 -0.265625 C 1.394531 0.222656 0.925781 0.46875 0.625 0.46875 C 0.46875 0.46875 0.347656 0.390625 0.265625 0.234375 C 0.191406 0.078125 0.15625 -0.0859375 0.15625 -0.265625 C 0.15625 -0.617188 0.289062 -1.117188 0.5625 -1.765625 C 0.882812 -2.503906 1.175781 -2.875 1.4375 -2.875 C 1.570312 -2.875 1.675781 -2.65625 1.75 -2.21875 C 1.875 -1.570312 1.988281 -1.125 2.09375 -0.875 C 2.332031 -1.132812 2.628906 -1.476562 2.984375 -1.90625 C 3.347656 -2.34375 3.765625 -2.867188 4.234375 -3.484375 C 5.398438 -5.023438 6.175781 -5.863281 6.5625 -6 C 6.6875 -6.050781 6.816406 -6.078125 6.953125 -6.078125 C 7.097656 -6.078125 7.210938 -6.046875 7.296875 -5.984375 C 7.390625 -5.929688 7.4375 -5.863281 7.4375 -5.78125 C 7.4375 -5.65625 7.332031 -5.582031 7.125 -5.5625 C 6.96875 -5.476562 6.78125 -5.335938 6.5625 -5.140625 C 6.34375 -4.953125 6.113281 -4.734375 5.875 -4.484375 C 5.632812 -4.234375 5.40625 -3.988281 5.1875 -3.75 C 4.976562 -3.507812 4.8125 -3.300781 4.6875 -3.125 C 3.914062 -2.039062 3.140625 -1.179688 2.359375 -0.546875 L 2.296875 -0.484375 C 2.523438 -0.148438 2.800781 0.078125 3.125 0.203125 C 3.457031 0.335938 3.820312 0.40625 4.21875 0.40625 C 4.875 0.40625 5.5 0.304688 6.09375 0.109375 C 6.695312 -0.0859375 7.238281 -0.378906 7.71875 -0.765625 C 8.195312 -1.160156 8.59375 -1.644531 8.90625 -2.21875 C 9.238281 -2.84375 9.40625 -3.4375 9.40625 -4 C 9.40625 -4.382812 9.320312 -4.75 9.15625 -5.09375 C 8.988281 -5.4375 8.765625 -5.726562 8.484375 -5.96875 C 8.210938 -6.21875 7.90625 -6.378906 7.5625 -6.453125 C 7.164062 -6.535156 6.753906 -6.578125 6.328125 -6.578125 C 5.210938 -6.578125 4.1875 -6.320312 3.25 -5.8125 C 2.25 -5.269531 1.75 -4.660156 1.75 -3.984375 C 1.75 -3.804688 1.804688 -3.65625 1.921875 -3.53125 C 2.003906 -3.425781 2.066406 -3.363281 2.109375 -3.34375 L 2.03125 -3.34375 C 1.832031 -3.382812 1.660156 -3.488281 1.515625 -3.65625 C 1.367188 -3.820312 1.296875 -4.003906 1.296875 -4.203125 C 1.296875 -4.578125 1.410156 -4.921875 1.640625 -5.234375 C 1.878906 -5.554688 2.222656 -5.847656 2.671875 -6.109375 C 3.566406 -6.617188 4.628906 -6.875 5.859375 -6.875 C 6.128906 -6.875 6.398438 -6.859375 6.671875 -6.828125 C 6.953125 -6.796875 7.226562 -6.753906 7.5 -6.703125 C 7.96875 -6.597656 8.390625 -6.40625 8.765625 -6.125 C 9.148438 -5.84375 9.457031 -5.5 9.6875 -5.09375 C 9.925781 -4.6875 10.046875 -4.25 10.046875 -3.78125 C 10.046875 -3.238281 9.882812 -2.679688 9.5625 -2.109375 C 9.25 -1.515625 8.835938 -1.019531 8.328125 -0.625 C 7.828125 -0.238281 7.257812 0.0546875 6.625 0.265625 C 6 0.472656 5.332031 0.59375 4.625 0.625 Z M 0.6875 0.265625 C 1 0.128906 1.375 -0.148438 1.8125 -0.578125 C 1.601562 -0.929688 1.46875 -1.226562 1.40625 -1.46875 C 1.351562 -1.625 1.316406 -1.863281 1.296875 -2.1875 C 0.796875 -1.46875 0.546875 -0.84375 0.546875 -0.3125 C 0.546875 -0.09375 0.59375 0.0976562 0.6875 0.265625 Z M 0.6875 0.265625 "/></g></g></g><g fill="#545454" fill-opacity="1"><g transform="translate(35.958639, 9.701825)"><g><path d="M 2.390625 -3.734375 C 2.273438 -3.734375 2.171875 -3.769531 2.078125 -3.84375 C 1.984375 -3.925781 1.9375 -4.019531 1.9375 -4.125 C 1.9375 -4.320312 2.078125 -4.421875 2.359375 -4.421875 C 2.453125 -4.421875 2.550781 -4.382812 2.65625 -4.3125 C 2.757812 -4.25 2.8125 -4.164062 2.8125 -4.0625 C 2.8125 -3.976562 2.765625 -3.898438 2.671875 -3.828125 C 2.578125 -3.765625 2.484375 -3.734375 2.390625 -3.734375 Z M 0.390625 0.125 C 0.234375 0.125 0.101562 0.0703125 0 -0.03125 C -0.101562 -0.132812 -0.15625 -0.320312 -0.15625 -0.59375 C -0.15625 -0.75 -0.117188 -0.925781 -0.046875 -1.125 C 0.015625 -1.320312 0.0976562 -1.519531 0.203125 -1.71875 C 0.304688 -1.925781 0.410156 -2.109375 0.515625 -2.265625 C 0.910156 -2.921875 1.238281 -3.253906 1.5 -3.265625 C 1.570312 -3.265625 1.65625 -3.234375 1.75 -3.171875 C 1.84375 -3.117188 1.890625 -3.0625 1.890625 -3 C 1.890625 -3 1.613281 -2.644531 1.0625 -1.9375 C 0.519531 -1.238281 0.25 -0.738281 0.25 -0.4375 C 0.25 -0.207031 0.335938 -0.09375 0.515625 -0.09375 C 0.628906 -0.09375 0.78125 -0.140625 0.96875 -0.234375 C 1.15625 -0.335938 1.347656 -0.460938 1.546875 -0.609375 C 1.753906 -0.765625 1.945312 -0.925781 2.125 -1.09375 C 2.3125 -1.269531 2.460938 -1.429688 2.578125 -1.578125 C 2.648438 -1.671875 2.710938 -1.734375 2.765625 -1.765625 C 2.828125 -1.804688 2.863281 -1.828125 2.875 -1.828125 C 2.90625 -1.828125 2.921875 -1.804688 2.921875 -1.765625 C 2.921875 -1.734375 2.878906 -1.660156 2.796875 -1.546875 C 2.710938 -1.441406 2.597656 -1.316406 2.453125 -1.171875 C 2.273438 -0.992188 2.082031 -0.800781 1.875 -0.59375 C 1.664062 -0.394531 1.4375 -0.222656 1.1875 -0.078125 C 0.945312 0.0546875 0.679688 0.125 0.390625 0.125 Z M 0.390625 0.125 "/></g></g></g><g fill="#545454" fill-opacity="1"><g transform="translate(38.408368, 9.701825)"><g><path d="M -0.125 2.21875 C -0.332031 2.21875 -0.515625 2.128906 -0.671875 1.953125 C -0.828125 1.773438 -0.90625 1.578125 -0.90625 1.359375 C -0.882812 1.273438 -0.851562 1.234375 -0.8125 1.234375 C -0.769531 1.234375 -0.742188 1.289062 -0.734375 1.40625 C -0.722656 1.519531 -0.664062 1.628906 -0.5625 1.734375 C -0.457031 1.835938 -0.351562 1.890625 -0.25 1.890625 C 0.164062 1.890625 0.609375 1.617188 1.078125 1.078125 C 1.242188 0.890625 1.414062 0.660156 1.59375 0.390625 C 1.769531 0.128906 1.941406 -0.164062 2.109375 -0.5 L 2.640625 -1.578125 L 1.828125 -0.75 C 1.578125 -0.5 1.359375 -0.3125 1.171875 -0.1875 C 0.992188 -0.0625 0.851562 0 0.75 0 C 0.570312 0 0.394531 -0.0625 0.21875 -0.1875 C 0.0507812 -0.3125 -0.0390625 -0.457031 -0.0625 -0.625 C -0.132812 -1.1875 0.210938 -1.847656 0.984375 -2.609375 C 1.753906 -3.367188 2.445312 -3.75 3.0625 -3.75 C 3.226562 -3.75 3.359375 -3.707031 3.453125 -3.625 C 3.503906 -3.582031 3.539062 -3.519531 3.5625 -3.4375 C 3.582031 -3.351562 3.601562 -3.3125 3.625 -3.3125 C 3.65625 -3.3125 3.679688 -3.316406 3.703125 -3.328125 C 3.722656 -3.335938 3.75 -3.34375 3.78125 -3.34375 C 3.875 -3.34375 3.945312 -3.304688 4 -3.234375 C 4.0625 -3.171875 4.082031 -3.109375 4.0625 -3.046875 C 4.0625 -2.984375 3.957031 -2.789062 3.75 -2.46875 C 3.625 -2.25 3.476562 -1.984375 3.3125 -1.671875 C 3.144531 -1.367188 2.96875 -1.050781 2.78125 -0.71875 C 2.59375 -0.394531 2.410156 -0.09375 2.234375 0.1875 C 2.066406 0.476562 1.914062 0.71875 1.78125 0.90625 C 1.113281 1.78125 0.476562 2.21875 -0.125 2.21875 Z M 0.65625 -0.25 C 1.070312 -0.25 1.640625 -0.707031 2.359375 -1.625 L 3.515625 -3.203125 C 3.472656 -3.304688 3.382812 -3.359375 3.25 -3.359375 C 2.789062 -3.359375 2.1875 -3.003906 1.4375 -2.296875 C 0.65625 -1.554688 0.304688 -0.960938 0.390625 -0.515625 C 0.421875 -0.335938 0.507812 -0.25 0.65625 -0.25 Z M 0.65625 -0.25 "/></g></g></g><g fill="#545454" fill-opacity="1"><g transform="translate(42.418987, 9.701825)"><g><path d="M 2.390625 -3.734375 C 2.273438 -3.734375 2.171875 -3.769531 2.078125 -3.84375 C 1.984375 -3.925781 1.9375 -4.019531 1.9375 -4.125 C 1.9375 -4.320312 2.078125 -4.421875 2.359375 -4.421875 C 2.453125 -4.421875 2.550781 -4.382812 2.65625 -4.3125 C 2.757812 -4.25 2.8125 -4.164062 2.8125 -4.0625 C 2.8125 -3.976562 2.765625 -3.898438 2.671875 -3.828125 C 2.578125 -3.765625 2.484375 -3.734375 2.390625 -3.734375 Z M 0.390625 0.125 C 0.234375 0.125 0.101562 0.0703125 0 -0.03125 C -0.101562 -0.132812 -0.15625 -0.320312 -0.15625 -0.59375 C -0.15625 -0.75 -0.117188 -0.925781 -0.046875 -1.125 C 0.015625 -1.320312 0.0976562 -1.519531 0.203125 -1.71875 C 0.304688 -1.925781 0.410156 -2.109375 0.515625 -2.265625 C 0.910156 -2.921875 1.238281 -3.253906 1.5 -3.265625 C 1.570312 -3.265625 1.65625 -3.234375 1.75 -3.171875 C 1.84375 -3.117188 1.890625 -3.0625 1.890625 -3 C 1.890625 -3 1.613281 -2.644531 1.0625 -1.9375 C 0.519531 -1.238281 0.25 -0.738281 0.25 -0.4375 C 0.25 -0.207031 0.335938 -0.09375 0.515625 -0.09375 C 0.628906 -0.09375 0.78125 -0.140625 0.96875 -0.234375 C 1.15625 -0.335938 1.347656 -0.460938 1.546875 -0.609375 C 1.753906 -0.765625 1.945312 -0.925781 2.125 -1.09375 C 2.3125 -1.269531 2.460938 -1.429688 2.578125 -1.578125 C 2.648438 -1.671875 2.710938 -1.734375 2.765625 -1.765625 C 2.828125 -1.804688 2.863281 -1.828125 2.875 -1.828125 C 2.90625 -1.828125 2.921875 -1.804688 2.921875 -1.765625 C 2.921875 -1.734375 2.878906 -1.660156 2.796875 -1.546875 C 2.710938 -1.441406 2.597656 -1.316406 2.453125 -1.171875 C 2.273438 -0.992188 2.082031 -0.800781 1.875 -0.59375 C 1.664062 -0.394531 1.4375 -0.222656 1.1875 -0.078125 C 0.945312 0.0546875 0.679688 0.125 0.390625 0.125 Z M 0.390625 0.125 "/></g></g></g><g fill="#545454" fill-opacity="1"><g transform="translate(44.868717, 9.701825)"><g><path d="M 0.671875 0.0625 C 0.441406 0.0625 0.257812 0.0078125 0.125 -0.09375 C -0.0078125 -0.207031 -0.078125 -0.410156 -0.078125 -0.703125 C -0.078125 -0.867188 -0.0234375 -1.078125 0.078125 -1.328125 C 0.179688 -1.585938 0.304688 -1.863281 0.453125 -2.15625 C 0.609375 -2.457031 0.757812 -2.753906 0.90625 -3.046875 C 0.8125 -3.023438 0.726562 -3.015625 0.65625 -3.015625 C 0.445312 -3.015625 0.34375 -3.097656 0.34375 -3.265625 C 0.34375 -3.347656 0.367188 -3.410156 0.421875 -3.453125 C 0.484375 -3.492188 0.539062 -3.519531 0.59375 -3.53125 C 0.59375 -3.53125 0.601562 -3.53125 0.625 -3.53125 C 0.644531 -3.53125 0.664062 -3.53125 0.6875 -3.53125 L 1.328125 -3.53125 C 1.453125 -3.695312 1.582031 -3.875 1.71875 -4.0625 C 1.914062 -4.3125 2.070312 -4.457031 2.1875 -4.5 L 2.21875 -4.5 C 2.269531 -4.5 2.34375 -4.472656 2.4375 -4.421875 C 2.550781 -4.359375 2.609375 -4.296875 2.609375 -4.234375 C 2.609375 -4.140625 2.4375 -3.894531 2.09375 -3.5 C 2.15625 -3.488281 2.25 -3.484375 2.375 -3.484375 C 2.5 -3.484375 2.648438 -3.484375 2.828125 -3.484375 C 2.910156 -3.484375 3.035156 -3.484375 3.203125 -3.484375 C 3.367188 -3.484375 3.539062 -3.484375 3.71875 -3.484375 C 3.894531 -3.492188 4.046875 -3.5 4.171875 -3.5 C 4.304688 -3.507812 4.378906 -3.515625 4.390625 -3.515625 C 4.410156 -3.503906 4.421875 -3.492188 4.421875 -3.484375 C 4.421875 -3.421875 3.992188 -3.332031 3.140625 -3.21875 C 2.660156 -3.15625 2.289062 -3.101562 2.03125 -3.0625 C 1.769531 -3.03125 1.628906 -3.007812 1.609375 -3 C 1.515625 -2.914062 1.394531 -2.769531 1.25 -2.5625 C 1.101562 -2.351562 0.957031 -2.117188 0.8125 -1.859375 C 0.664062 -1.597656 0.539062 -1.347656 0.4375 -1.109375 C 0.34375 -0.878906 0.296875 -0.695312 0.296875 -0.5625 C 0.296875 -0.445312 0.335938 -0.347656 0.421875 -0.265625 C 0.515625 -0.191406 0.660156 -0.15625 0.859375 -0.15625 C 0.984375 -0.15625 1.132812 -0.1875 1.3125 -0.25 C 1.5 -0.3125 1.671875 -0.378906 1.828125 -0.453125 C 1.992188 -0.523438 2.113281 -0.582031 2.1875 -0.625 C 2.375 -0.738281 2.582031 -0.890625 2.8125 -1.078125 C 3.039062 -1.273438 3.265625 -1.5 3.484375 -1.75 C 3.585938 -1.84375 3.660156 -1.890625 3.703125 -1.890625 C 3.722656 -1.890625 3.734375 -1.878906 3.734375 -1.859375 C 3.734375 -1.796875 3.675781 -1.703125 3.5625 -1.578125 C 3.394531 -1.367188 3.203125 -1.164062 2.984375 -0.96875 C 2.773438 -0.78125 2.539062 -0.601562 2.28125 -0.4375 C 1.976562 -0.257812 1.691406 -0.128906 1.421875 -0.046875 C 1.148438 0.0234375 0.898438 0.0625 0.671875 0.0625 Z M 0.671875 0.0625 "/></g></g></g><g fill="#545454" fill-opacity="1"><g transform="translate(48.08805, 9.701825)"><g><path d="M 0.71875 0.046875 C 0.550781 0.046875 0.378906 -0.0078125 0.203125 -0.125 C 0.0351562 -0.25 -0.0625 -0.394531 -0.09375 -0.5625 C -0.15625 -1.125 0.195312 -1.785156 0.96875 -2.546875 C 1.726562 -3.316406 2.414062 -3.703125 3.03125 -3.703125 C 3.195312 -3.703125 3.328125 -3.660156 3.421875 -3.578125 C 3.472656 -3.523438 3.507812 -3.457031 3.53125 -3.375 C 3.5625 -3.289062 3.582031 -3.25 3.59375 -3.25 C 3.625 -3.25 3.648438 -3.253906 3.671875 -3.265625 C 3.691406 -3.273438 3.71875 -3.28125 3.75 -3.28125 C 3.832031 -3.28125 3.90625 -3.242188 3.96875 -3.171875 C 4.039062 -3.109375 4.082031 -3.050781 4.09375 -3 C 4.09375 -2.988281 3.859375 -2.632812 3.390625 -1.9375 C 2.921875 -1.25 2.707031 -0.78125 2.75 -0.53125 C 2.789062 -0.363281 2.875 -0.28125 3 -0.28125 C 3.375 -0.28125 4.054688 -0.898438 5.046875 -2.140625 C 5.066406 -2.171875 5.09375 -2.1875 5.125 -2.1875 C 5.15625 -2.1875 5.171875 -2.160156 5.171875 -2.109375 C 5.171875 -2.054688 5.140625 -1.984375 5.078125 -1.890625 C 4.160156 -0.660156 3.453125 -0.046875 2.953125 -0.046875 C 2.890625 -0.046875 2.832031 -0.0546875 2.78125 -0.078125 C 2.457031 -0.203125 2.296875 -0.441406 2.296875 -0.796875 C 2.296875 -0.910156 2.3125 -1.03125 2.34375 -1.15625 L 1.671875 -0.515625 C 1.460938 -0.304688 1.273438 -0.160156 1.109375 -0.078125 C 0.953125 0.00390625 0.820312 0.046875 0.71875 0.046875 Z M 0.625 -0.1875 C 1.050781 -0.1875 1.625 -0.644531 2.34375 -1.5625 L 3.484375 -3.140625 C 3.429688 -3.242188 3.335938 -3.296875 3.203125 -3.296875 C 2.765625 -3.296875 2.171875 -2.941406 1.421875 -2.234375 C 0.640625 -1.515625 0.289062 -0.914062 0.375 -0.4375 C 0.40625 -0.269531 0.488281 -0.1875 0.625 -0.1875 Z M 0.625 -0.1875 "/></g></g></g><g fill="#545454" fill-opacity="1"><g transform="translate(52.553927, 9.701825)"><g><path d="M 0.828125 0.015625 C 0.617188 0.015625 0.421875 -0.0351562 0.234375 -0.140625 C 0.0546875 -0.242188 -0.03125 -0.414062 -0.03125 -0.65625 C -0.03125 -1 0.0859375 -1.40625 0.328125 -1.875 C 0.566406 -2.34375 0.84375 -2.832031 1.15625 -3.34375 C 2 -4.71875 2.597656 -5.40625 2.953125 -5.40625 C 3.023438 -5.40625 3.097656 -5.375 3.171875 -5.3125 C 3.253906 -5.257812 3.300781 -5.203125 3.3125 -5.140625 L 2.546875 -4.125 C 2.253906 -3.726562 1.988281 -3.359375 1.75 -3.015625 C 1.507812 -2.679688 1.300781 -2.378906 1.125 -2.109375 C 1.039062 -1.972656 0.941406 -1.816406 0.828125 -1.640625 C 0.722656 -1.472656 0.628906 -1.296875 0.546875 -1.109375 C 0.460938 -0.921875 0.421875 -0.734375 0.421875 -0.546875 C 0.421875 -0.460938 0.445312 -0.382812 0.5 -0.3125 C 0.550781 -0.25 0.640625 -0.21875 0.765625 -0.21875 C 0.992188 -0.21875 1.296875 -0.34375 1.671875 -0.59375 C 2.054688 -0.84375 2.429688 -1.1875 2.796875 -1.625 C 2.835938 -1.664062 2.878906 -1.703125 2.921875 -1.734375 C 2.960938 -1.773438 3 -1.796875 3.03125 -1.796875 C 3.0625 -1.796875 3.078125 -1.773438 3.078125 -1.734375 C 3.078125 -1.710938 3.050781 -1.671875 3 -1.609375 C 2.957031 -1.546875 2.921875 -1.5 2.890625 -1.46875 L 2.640625 -1.171875 C 2.492188 -1.015625 2.320312 -0.84375 2.125 -0.65625 C 1.925781 -0.46875 1.710938 -0.304688 1.484375 -0.171875 C 1.265625 -0.046875 1.046875 0.015625 0.828125 0.015625 Z M 0.828125 0.015625 "/></g></g></g><g fill="#545454" fill-opacity="1"><g transform="translate(55.188208, 9.701825)"><g/></g></g><g fill="#545454" fill-opacity="1"><g transform="translate(57.334431, 9.701825)"><g/></g></g><g fill="#545454" fill-opacity="1"><g transform="translate(59.48138, 9.701825)"><g><path d="M 2.859375 0.703125 C 2.046875 0.703125 1.421875 0.488281 0.984375 0.0625 C 0.554688 -0.363281 0.34375 -0.914062 0.34375 -1.59375 C 0.34375 -2.21875 0.492188 -2.828125 0.796875 -3.421875 C 1.109375 -4.015625 1.5 -4.554688 1.96875 -5.046875 C 2.34375 -5.453125 2.773438 -5.800781 3.265625 -6.09375 C 3.765625 -6.394531 4.285156 -6.628906 4.828125 -6.796875 C 5.378906 -6.960938 5.914062 -7.046875 6.4375 -7.046875 C 6.851562 -7.046875 7.226562 -6.988281 7.5625 -6.875 C 7.894531 -6.769531 8.15625 -6.597656 8.34375 -6.359375 C 8.539062 -6.117188 8.640625 -5.804688 8.640625 -5.421875 C 8.640625 -5.078125 8.554688 -4.757812 8.390625 -4.46875 C 8.234375 -4.175781 8.019531 -3.921875 7.75 -3.703125 C 7.476562 -3.492188 7.175781 -3.328125 6.84375 -3.203125 C 6.519531 -3.078125 6.191406 -3.015625 5.859375 -3.015625 C 5.429688 -3.015625 5.066406 -3.113281 4.765625 -3.3125 C 4.472656 -3.507812 4.328125 -3.757812 4.328125 -4.0625 C 4.328125 -4.457031 4.578125 -4.84375 5.078125 -5.21875 C 5.160156 -5.28125 5.226562 -5.3125 5.28125 -5.3125 C 5.3125 -5.3125 5.328125 -5.296875 5.328125 -5.265625 C 5.328125 -5.191406 5.269531 -5.132812 5.15625 -5.09375 C 4.75 -4.769531 4.546875 -4.441406 4.546875 -4.109375 C 4.546875 -3.867188 4.65625 -3.664062 4.875 -3.5 C 5.09375 -3.34375 5.363281 -3.265625 5.6875 -3.265625 C 5.976562 -3.265625 6.269531 -3.320312 6.5625 -3.4375 C 6.851562 -3.5625 7.125 -3.726562 7.375 -3.9375 C 7.625 -4.15625 7.820312 -4.394531 7.96875 -4.65625 C 8.113281 -4.914062 8.1875 -5.191406 8.1875 -5.484375 C 8.1875 -5.953125 8.023438 -6.296875 7.703125 -6.515625 C 7.390625 -6.734375 6.988281 -6.84375 6.5 -6.84375 C 5.9375 -6.84375 5.378906 -6.738281 4.828125 -6.53125 C 4.285156 -6.320312 3.773438 -6.03125 3.296875 -5.65625 C 2.828125 -5.289062 2.40625 -4.867188 2.03125 -4.390625 C 1.28125 -3.441406 0.90625 -2.550781 0.90625 -1.71875 C 0.90625 -1.28125 1.003906 -0.90625 1.203125 -0.59375 C 1.398438 -0.289062 1.675781 -0.0625 2.03125 0.09375 C 2.394531 0.257812 2.8125 0.34375 3.28125 0.34375 C 3.96875 0.34375 4.628906 0.191406 5.265625 -0.109375 C 5.910156 -0.410156 6.460938 -0.816406 6.921875 -1.328125 C 7.046875 -1.453125 7.132812 -1.515625 7.1875 -1.515625 C 7.226562 -1.515625 7.25 -1.484375 7.25 -1.421875 C 7.25 -1.335938 7.210938 -1.253906 7.140625 -1.171875 C 6.890625 -0.910156 6.59375 -0.664062 6.25 -0.4375 C 5.914062 -0.21875 5.554688 -0.0234375 5.171875 0.140625 C 4.785156 0.316406 4.390625 0.453125 3.984375 0.546875 C 3.585938 0.648438 3.210938 0.703125 2.859375 0.703125 Z M 2.859375 0.703125 "/></g></g></g><g fill="#545454" fill-opacity="1"><g transform="translate(67.350864, 9.701825)"><g><path d="M 0.46875 0.015625 C 0.28125 0.015625 0.132812 -0.0664062 0.03125 -0.234375 C -0.0625 -0.398438 -0.109375 -0.5625 -0.109375 -0.71875 C -0.109375 -1.15625 0.203125 -1.765625 0.828125 -2.546875 C 1.472656 -3.335938 1.988281 -3.734375 2.375 -3.734375 C 2.738281 -3.734375 2.921875 -3.535156 2.921875 -3.140625 C 2.921875 -3.085938 2.914062 -3.023438 2.90625 -2.953125 C 2.894531 -2.890625 2.882812 -2.820312 2.875 -2.75 C 2.882812 -2.726562 2.921875 -2.71875 2.984375 -2.71875 C 3.179688 -2.71875 3.410156 -2.785156 3.671875 -2.921875 C 3.671875 -2.804688 3.382812 -2.628906 2.8125 -2.390625 C 2.894531 -2.148438 2.660156 -1.695312 2.109375 -1.03125 C 1.535156 -0.332031 1.046875 0.015625 0.640625 0.015625 Z M 0.65625 -0.296875 C 0.96875 -0.296875 1.367188 -0.582031 1.859375 -1.15625 C 2.328125 -1.71875 2.5625 -2.117188 2.5625 -2.359375 C 2.445312 -2.429688 2.300781 -2.597656 2.125 -2.859375 C 1.875 -2.859375 1.519531 -2.5625 1.0625 -1.96875 C 0.601562 -1.394531 0.382812 -0.953125 0.40625 -0.640625 C 0.40625 -0.410156 0.488281 -0.296875 0.65625 -0.296875 Z M 0.65625 -0.296875 "/></g></g></g><g fill="#545454" fill-opacity="1"><g transform="translate(70.396766, 9.701825)"><g><path d="M 2.5625 0.015625 C 2.382812 0.015625 2.296875 -0.078125 2.296875 -0.265625 C 2.378906 -0.671875 2.539062 -1.128906 2.78125 -1.640625 C 2.894531 -1.878906 3.007812 -2.117188 3.125 -2.359375 C 3.25 -2.597656 3.367188 -2.84375 3.484375 -3.09375 C 3.222656 -2.90625 2.957031 -2.703125 2.6875 -2.484375 C 2.414062 -2.265625 2.15625 -2.019531 1.90625 -1.75 C 1.613281 -1.425781 1.269531 -1.015625 0.875 -0.515625 C 0.59375 -0.160156 0.429688 0.015625 0.390625 0.015625 C 0.285156 0.015625 0.203125 -0.03125 0.140625 -0.125 C 0.078125 -0.21875 0.046875 -0.300781 0.046875 -0.375 C 0.046875 -0.46875 0.128906 -0.707031 0.296875 -1.09375 C 0.347656 -1.21875 0.398438 -1.335938 0.453125 -1.453125 C 0.503906 -1.578125 0.554688 -1.695312 0.609375 -1.8125 L -0.046875 -1.125 C -0.0546875 -1.113281 -0.0976562 -1.070312 -0.171875 -1 C -0.242188 -0.925781 -0.300781 -0.890625 -0.34375 -0.890625 C -0.382812 -0.890625 -0.40625 -0.914062 -0.40625 -0.96875 C -0.40625 -0.976562 -0.398438 -0.992188 -0.390625 -1.015625 C -0.378906 -1.046875 -0.351562 -1.078125 -0.3125 -1.109375 C -0.207031 -1.222656 -0.0976562 -1.335938 0.015625 -1.453125 C 0.128906 -1.578125 0.25 -1.722656 0.375 -1.890625 C 0.46875 -2.015625 0.601562 -2.195312 0.78125 -2.4375 C 0.957031 -2.675781 1.175781 -2.976562 1.4375 -3.34375 C 1.519531 -3.457031 1.632812 -3.515625 1.78125 -3.515625 C 1.925781 -3.515625 2 -3.445312 2 -3.3125 C 2 -3.257812 1.8125 -2.921875 1.4375 -2.296875 C 1.25 -1.960938 1.097656 -1.691406 0.984375 -1.484375 C 0.878906 -1.273438 0.8125 -1.117188 0.78125 -1.015625 C 0.9375 -1.191406 1.125 -1.390625 1.34375 -1.609375 C 1.570312 -1.828125 1.828125 -2.066406 2.109375 -2.328125 C 3.003906 -3.148438 3.59375 -3.5625 3.875 -3.5625 C 3.945312 -3.5625 4.019531 -3.535156 4.09375 -3.484375 C 4.175781 -3.441406 4.21875 -3.378906 4.21875 -3.296875 C 4.21875 -3.265625 4.078125 -3 3.796875 -2.5 C 3.523438 -2 3.375 -1.703125 3.34375 -1.609375 C 4.144531 -2.285156 4.546875 -2.628906 4.546875 -2.640625 C 5.222656 -3.160156 5.707031 -3.421875 6 -3.421875 C 6.09375 -3.421875 6.175781 -3.394531 6.25 -3.34375 C 6.320312 -3.289062 6.359375 -3.226562 6.359375 -3.15625 C 6.359375 -3.144531 6.128906 -2.84375 5.671875 -2.25 C 5.191406 -1.644531 4.925781 -1.148438 4.875 -0.765625 C 4.84375 -0.503906 4.972656 -0.375 5.265625 -0.375 C 5.453125 -0.375 5.707031 -0.488281 6.03125 -0.71875 C 6.351562 -0.957031 6.691406 -1.28125 7.046875 -1.6875 C 7.085938 -1.726562 7.132812 -1.769531 7.1875 -1.8125 C 7.238281 -1.863281 7.28125 -1.890625 7.3125 -1.890625 C 7.363281 -1.890625 7.390625 -1.875 7.390625 -1.84375 C 7.390625 -1.789062 7.351562 -1.734375 7.28125 -1.671875 C 7.09375 -1.441406 6.867188 -1.207031 6.609375 -0.96875 C 6.359375 -0.738281 6.101562 -0.539062 5.84375 -0.375 C 5.59375 -0.207031 5.375 -0.125 5.1875 -0.125 C 4.695312 -0.125 4.453125 -0.351562 4.453125 -0.8125 C 4.453125 -0.96875 4.492188 -1.148438 4.578125 -1.359375 C 4.660156 -1.578125 4.75 -1.773438 4.84375 -1.953125 C 5.050781 -2.359375 5.273438 -2.71875 5.515625 -3.03125 C 5.285156 -2.914062 5.046875 -2.757812 4.796875 -2.5625 C 4.546875 -2.375 4.285156 -2.15625 4.015625 -1.90625 C 3.398438 -1.300781 2.976562 -0.6875 2.75 -0.0625 C 2.707031 -0.0078125 2.644531 0.015625 2.5625 0.015625 Z M 2.5625 0.015625 "/></g></g></g><g fill="#545454" fill-opacity="1"><g transform="translate(77.236498, 9.701825)"><g><path d="M -0.625 2.046875 C -0.925781 1.878906 -1.078125 1.566406 -1.078125 1.109375 C -1.078125 0.609375 -0.671875 -0.242188 0.140625 -1.453125 C 0.921875 -2.617188 1.460938 -3.25 1.765625 -3.34375 C 1.796875 -3.34375 1.820312 -3.34375 1.84375 -3.34375 C 1.863281 -3.351562 1.882812 -3.359375 1.90625 -3.359375 C 2.03125 -3.359375 2.09375 -3.222656 2.09375 -2.953125 C 2.144531 -3.003906 2.234375 -3.050781 2.359375 -3.09375 C 2.484375 -3.144531 2.613281 -3.1875 2.75 -3.21875 C 2.882812 -3.25 2.984375 -3.269531 3.046875 -3.28125 C 3.335938 -3.289062 3.582031 -3.21875 3.78125 -3.0625 C 3.988281 -2.90625 4.09375 -2.703125 4.09375 -2.453125 C 4.09375 -1.867188 3.738281 -1.300781 3.03125 -0.75 C 2.394531 -0.25 1.832031 0 1.34375 0 C 1.019531 0 0.796875 -0.015625 0.671875 -0.046875 C 0.492188 -0.0976562 0.316406 -0.234375 0.140625 -0.453125 C 0.0546875 -0.390625 -0.03125 -0.28125 -0.125 -0.125 C -0.21875 0.03125 -0.304688 0.195312 -0.390625 0.375 C -0.472656 0.5625 -0.539062 0.742188 -0.59375 0.921875 C -0.644531 1.109375 -0.671875 1.265625 -0.671875 1.390625 C -0.671875 1.515625 -0.644531 1.617188 -0.59375 1.703125 C -0.550781 1.785156 -0.507812 1.863281 -0.46875 1.9375 C -0.46875 1.9375 -0.460938 1.9375 -0.453125 1.9375 C -0.453125 1.945312 -0.453125 1.953125 -0.453125 1.953125 C -0.453125 1.984375 -0.472656 2.007812 -0.515625 2.03125 C -0.554688 2.0625 -0.59375 2.066406 -0.625 2.046875 Z M 1.203125 -0.296875 C 1.609375 -0.296875 2.078125 -0.503906 2.609375 -0.921875 C 3.222656 -1.410156 3.53125 -1.957031 3.53125 -2.5625 C 3.53125 -2.832031 3.363281 -2.96875 3.03125 -2.96875 C 2.71875 -2.96875 2.425781 -2.898438 2.15625 -2.765625 C 2.082031 -2.734375 1.960938 -2.640625 1.796875 -2.484375 C 1.640625 -2.328125 1.425781 -2.109375 1.15625 -1.828125 C 0.582031 -1.234375 0.296875 -0.851562 0.296875 -0.6875 C 0.296875 -0.5625 0.414062 -0.457031 0.65625 -0.375 C 0.820312 -0.320312 1.003906 -0.296875 1.203125 -0.296875 Z M 1.203125 -0.296875 "/></g></g></g><g fill="#545454" fill-opacity="1"><g transform="translate(81.322993, 9.701825)"><g><path d="M 0.71875 0.046875 C 0.550781 0.046875 0.378906 -0.0078125 0.203125 -0.125 C 0.0351562 -0.25 -0.0625 -0.394531 -0.09375 -0.5625 C -0.15625 -1.125 0.195312 -1.785156 0.96875 -2.546875 C 1.726562 -3.316406 2.414062 -3.703125 3.03125 -3.703125 C 3.195312 -3.703125 3.328125 -3.660156 3.421875 -3.578125 C 3.472656 -3.523438 3.507812 -3.457031 3.53125 -3.375 C 3.5625 -3.289062 3.582031 -3.25 3.59375 -3.25 C 3.625 -3.25 3.648438 -3.253906 3.671875 -3.265625 C 3.691406 -3.273438 3.71875 -3.28125 3.75 -3.28125 C 3.832031 -3.28125 3.90625 -3.242188 3.96875 -3.171875 C 4.039062 -3.109375 4.082031 -3.050781 4.09375 -3 C 4.09375 -2.988281 3.859375 -2.632812 3.390625 -1.9375 C 2.921875 -1.25 2.707031 -0.78125 2.75 -0.53125 C 2.789062 -0.363281 2.875 -0.28125 3 -0.28125 C 3.375 -0.28125 4.054688 -0.898438 5.046875 -2.140625 C 5.066406 -2.171875 5.09375 -2.1875 5.125 -2.1875 C 5.15625 -2.1875 5.171875 -2.160156 5.171875 -2.109375 C 5.171875 -2.054688 5.140625 -1.984375 5.078125 -1.890625 C 4.160156 -0.660156 3.453125 -0.046875 2.953125 -0.046875 C 2.890625 -0.046875 2.832031 -0.0546875 2.78125 -0.078125 C 2.457031 -0.203125 2.296875 -0.441406 2.296875 -0.796875 C 2.296875 -0.910156 2.3125 -1.03125 2.34375 -1.15625 L 1.671875 -0.515625 C 1.460938 -0.304688 1.273438 -0.160156 1.109375 -0.078125 C 0.953125 0.00390625 0.820312 0.046875 0.71875 0.046875 Z M 0.625 -0.1875 C 1.050781 -0.1875 1.625 -0.644531 2.34375 -1.5625 L 3.484375 -3.140625 C 3.429688 -3.242188 3.335938 -3.296875 3.203125 -3.296875 C 2.765625 -3.296875 2.171875 -2.941406 1.421875 -2.234375 C 0.640625 -1.515625 0.289062 -0.914062 0.375 -0.4375 C 0.40625 -0.269531 0.488281 -0.1875 0.625 -0.1875 Z M 0.625 -0.1875 "/></g></g></g><g fill="#545454" fill-opacity="1"><g transform="translate(85.788873, 9.701825)"><g><path d="M 2.765625 0.015625 C 2.566406 0.015625 2.425781 -0.0351562 2.34375 -0.140625 C 2.269531 -0.253906 2.234375 -0.394531 2.234375 -0.5625 C 2.234375 -0.976562 2.378906 -1.425781 2.671875 -1.90625 L 3.359375 -3.03125 C 2.867188 -2.675781 2.378906 -2.226562 1.890625 -1.6875 C 1.765625 -1.539062 1.617188 -1.367188 1.453125 -1.171875 C 1.296875 -0.972656 1.117188 -0.75 0.921875 -0.5 C 0.660156 -0.15625 0.503906 0.015625 0.453125 0.015625 C 0.347656 0.015625 0.265625 -0.03125 0.203125 -0.125 C 0.140625 -0.21875 0.109375 -0.300781 0.109375 -0.375 C 0.109375 -0.425781 0.125 -0.53125 0.15625 -0.6875 C 0.195312 -0.84375 0.242188 -0.976562 0.296875 -1.09375 C 0.347656 -1.21875 0.398438 -1.335938 0.453125 -1.453125 C 0.503906 -1.578125 0.554688 -1.695312 0.609375 -1.8125 L -0.046875 -1.125 C -0.0546875 -1.113281 -0.0976562 -1.070312 -0.171875 -1 C -0.242188 -0.925781 -0.300781 -0.890625 -0.34375 -0.890625 C -0.382812 -0.890625 -0.40625 -0.914062 -0.40625 -0.96875 C -0.40625 -0.976562 -0.398438 -0.992188 -0.390625 -1.015625 C -0.378906 -1.046875 -0.351562 -1.078125 -0.3125 -1.109375 C -0.207031 -1.222656 -0.0976562 -1.335938 0.015625 -1.453125 C 0.128906 -1.578125 0.25 -1.722656 0.375 -1.890625 C 0.445312 -1.960938 0.546875 -2.082031 0.671875 -2.25 C 0.804688 -2.414062 0.945312 -2.59375 1.09375 -2.78125 C 1.25 -2.96875 1.398438 -3.140625 1.546875 -3.296875 C 1.578125 -3.347656 1.613281 -3.378906 1.65625 -3.390625 C 1.695312 -3.410156 1.726562 -3.421875 1.75 -3.421875 C 1.9375 -3.421875 2.03125 -3.347656 2.03125 -3.203125 C 2.03125 -3.160156 2.019531 -3.113281 2 -3.0625 C 1.351562 -2.164062 0.960938 -1.484375 0.828125 -1.015625 C 1.671875 -1.859375 2.347656 -2.488281 2.859375 -2.90625 C 3.367188 -3.332031 3.734375 -3.546875 3.953125 -3.546875 C 4.066406 -3.546875 4.15625 -3.523438 4.21875 -3.484375 C 4.28125 -3.453125 4.3125 -3.382812 4.3125 -3.28125 C 4.3125 -3.25 4.304688 -3.222656 4.296875 -3.203125 C 4.273438 -3.148438 4.125 -2.945312 3.84375 -2.59375 C 3.675781 -2.382812 3.53125 -2.195312 3.40625 -2.03125 C 3.28125 -1.875 3.175781 -1.734375 3.09375 -1.609375 C 2.96875 -1.398438 2.875 -1.207031 2.8125 -1.03125 C 2.75 -0.851562 2.71875 -0.703125 2.71875 -0.578125 C 2.71875 -0.535156 2.722656 -0.476562 2.734375 -0.40625 C 2.742188 -0.332031 2.785156 -0.296875 2.859375 -0.296875 C 3.023438 -0.296875 3.285156 -0.4375 3.640625 -0.71875 C 3.804688 -0.863281 3.960938 -1.007812 4.109375 -1.15625 C 4.253906 -1.3125 4.390625 -1.460938 4.515625 -1.609375 C 4.546875 -1.628906 4.59375 -1.679688 4.65625 -1.765625 C 4.726562 -1.847656 4.769531 -1.890625 4.78125 -1.890625 C 4.8125 -1.890625 4.828125 -1.863281 4.828125 -1.8125 C 4.828125 -1.78125 4.8125 -1.726562 4.78125 -1.65625 C 4.75 -1.59375 4.710938 -1.539062 4.671875 -1.5 C 4.585938 -1.40625 4.46875 -1.273438 4.3125 -1.109375 C 4.164062 -0.953125 3.992188 -0.785156 3.796875 -0.609375 C 3.609375 -0.429688 3.421875 -0.28125 3.234375 -0.15625 C 3.054688 -0.0390625 2.898438 0.015625 2.765625 0.015625 Z M 2.765625 0.015625 "/></g></g></g><g fill="#545454" fill-opacity="1"><g transform="translate(90.157194, 9.701825)"><g><path d="M 2.390625 -3.734375 C 2.273438 -3.734375 2.171875 -3.769531 2.078125 -3.84375 C 1.984375 -3.925781 1.9375 -4.019531 1.9375 -4.125 C 1.9375 -4.320312 2.078125 -4.421875 2.359375 -4.421875 C 2.453125 -4.421875 2.550781 -4.382812 2.65625 -4.3125 C 2.757812 -4.25 2.8125 -4.164062 2.8125 -4.0625 C 2.8125 -3.976562 2.765625 -3.898438 2.671875 -3.828125 C 2.578125 -3.765625 2.484375 -3.734375 2.390625 -3.734375 Z M 0.390625 0.125 C 0.234375 0.125 0.101562 0.0703125 0 -0.03125 C -0.101562 -0.132812 -0.15625 -0.320312 -0.15625 -0.59375 C -0.15625 -0.75 -0.117188 -0.925781 -0.046875 -1.125 C 0.015625 -1.320312 0.0976562 -1.519531 0.203125 -1.71875 C 0.304688 -1.925781 0.410156 -2.109375 0.515625 -2.265625 C 0.910156 -2.921875 1.238281 -3.253906 1.5 -3.265625 C 1.570312 -3.265625 1.65625 -3.234375 1.75 -3.171875 C 1.84375 -3.117188 1.890625 -3.0625 1.890625 -3 C 1.890625 -3 1.613281 -2.644531 1.0625 -1.9375 C 0.519531 -1.238281 0.25 -0.738281 0.25 -0.4375 C 0.25 -0.207031 0.335938 -0.09375 0.515625 -0.09375 C 0.628906 -0.09375 0.78125 -0.140625 0.96875 -0.234375 C 1.15625 -0.335938 1.347656 -0.460938 1.546875 -0.609375 C 1.753906 -0.765625 1.945312 -0.925781 2.125 -1.09375 C 2.3125 -1.269531 2.460938 -1.429688 2.578125 -1.578125 C 2.648438 -1.671875 2.710938 -1.734375 2.765625 -1.765625 C 2.828125 -1.804688 2.863281 -1.828125 2.875 -1.828125 C 2.90625 -1.828125 2.921875 -1.804688 2.921875 -1.765625 C 2.921875 -1.734375 2.878906 -1.660156 2.796875 -1.546875 C 2.710938 -1.441406 2.597656 -1.316406 2.453125 -1.171875 C 2.273438 -0.992188 2.082031 -0.800781 1.875 -0.59375 C 1.664062 -0.394531 1.4375 -0.222656 1.1875 -0.078125 C 0.945312 0.0546875 0.679688 0.125 0.390625 0.125 Z M 0.390625 0.125 "/></g></g></g><g fill="#545454" fill-opacity="1"><g transform="translate(92.606923, 9.701825)"><g><path d="M 0.46875 0.015625 C 0.28125 0.015625 0.132812 -0.0664062 0.03125 -0.234375 C -0.0625 -0.398438 -0.109375 -0.5625 -0.109375 -0.71875 C -0.109375 -1.15625 0.203125 -1.765625 0.828125 -2.546875 C 1.472656 -3.335938 1.988281 -3.734375 2.375 -3.734375 C 2.738281 -3.734375 2.921875 -3.535156 2.921875 -3.140625 C 2.921875 -3.085938 2.914062 -3.023438 2.90625 -2.953125 C 2.894531 -2.890625 2.882812 -2.820312 2.875 -2.75 C 2.882812 -2.726562 2.921875 -2.71875 2.984375 -2.71875 C 3.179688 -2.71875 3.410156 -2.785156 3.671875 -2.921875 C 3.671875 -2.804688 3.382812 -2.628906 2.8125 -2.390625 C 2.894531 -2.148438 2.660156 -1.695312 2.109375 -1.03125 C 1.535156 -0.332031 1.046875 0.015625 0.640625 0.015625 Z M 0.65625 -0.296875 C 0.96875 -0.296875 1.367188 -0.582031 1.859375 -1.15625 C 2.328125 -1.71875 2.5625 -2.117188 2.5625 -2.359375 C 2.445312 -2.429688 2.300781 -2.597656 2.125 -2.859375 C 1.875 -2.859375 1.519531 -2.5625 1.0625 -1.96875 C 0.601562 -1.394531 0.382812 -0.953125 0.40625 -0.640625 C 0.40625 -0.410156 0.488281 -0.296875 0.65625 -0.296875 Z M 0.65625 -0.296875 "/></g></g></g><g clip-path="url(#2ab7e8c89c)"><g fill="#545454" fill-opacity="1"><g transform="translate(95.652825, 9.701825)"><g><path d="M 2.765625 0.015625 C 2.566406 0.015625 2.425781 -0.0351562 2.34375 -0.140625 C 2.269531 -0.253906 2.234375 -0.394531 2.234375 -0.5625 C 2.234375 -0.976562 2.378906 -1.425781 2.671875 -1.90625 L 3.359375 -3.03125 C 2.867188 -2.675781 2.378906 -2.226562 1.890625 -1.6875 C 1.765625 -1.539062 1.617188 -1.367188 1.453125 -1.171875 C 1.296875 -0.972656 1.117188 -0.75 0.921875 -0.5 C 0.660156 -0.15625 0.503906 0.015625 0.453125 0.015625 C 0.347656 0.015625 0.265625 -0.03125 0.203125 -0.125 C 0.140625 -0.21875 0.109375 -0.300781 0.109375 -0.375 C 0.109375 -0.425781 0.125 -0.53125 0.15625 -0.6875 C 0.195312 -0.84375 0.242188 -0.976562 0.296875 -1.09375 C 0.347656 -1.21875 0.398438 -1.335938 0.453125 -1.453125 C 0.503906 -1.578125 0.554688 -1.695312 0.609375 -1.8125 L -0.046875 -1.125 C -0.0546875 -1.113281 -0.0976562 -1.070312 -0.171875 -1 C -0.242188 -0.925781 -0.300781 -0.890625 -0.34375 -0.890625 C -0.382812 -0.890625 -0.40625 -0.914062 -0.40625 -0.96875 C -0.40625 -0.976562 -0.398438 -0.992188 -0.390625 -1.015625 C -0.378906 -1.046875 -0.351562 -1.078125 -0.3125 -1.109375 C -0.207031 -1.222656 -0.0976562 -1.335938 0.015625 -1.453125 C 0.128906 -1.578125 0.25 -1.722656 0.375 -1.890625 C 0.445312 -1.960938 0.546875 -2.082031 0.671875 -2.25 C 0.804688 -2.414062 0.945312 -2.59375 1.09375 -2.78125 C 1.25 -2.96875 1.398438 -3.140625 1.546875 -3.296875 C 1.578125 -3.347656 1.613281 -3.378906 1.65625 -3.390625 C 1.695312 -3.410156 1.726562 -3.421875 1.75 -3.421875 C 1.9375 -3.421875 2.03125 -3.347656 2.03125 -3.203125 C 2.03125 -3.160156 2.019531 -3.113281 2 -3.0625 C 1.351562 -2.164062 0.960938 -1.484375 0.828125 -1.015625 C 1.671875 -1.859375 2.347656 -2.488281 2.859375 -2.90625 C 3.367188 -3.332031 3.734375 -3.546875 3.953125 -3.546875 C 4.066406 -3.546875 4.15625 -3.523438 4.21875 -3.484375 C 4.28125 -3.453125 4.3125 -3.382812 4.3125 -3.28125 C 4.3125 -3.25 4.304688 -3.222656 4.296875 -3.203125 C 4.273438 -3.148438 4.125 -2.945312 3.84375 -2.59375 C 3.675781 -2.382812 3.53125 -2.195312 3.40625 -2.03125 C 3.28125 -1.875 3.175781 -1.734375 3.09375 -1.609375 C 2.96875 -1.398438 2.875 -1.207031 2.8125 -1.03125 C 2.75 -0.851562 2.71875 -0.703125 2.71875 -0.578125 C 2.71875 -0.535156 2.722656 -0.476562 2.734375 -0.40625 C 2.742188 -0.332031 2.785156 -0.296875 2.859375 -0.296875 C 3.023438 -0.296875 3.285156 -0.4375 3.640625 -0.71875 C 3.804688 -0.863281 3.960938 -1.007812 4.109375 -1.15625 C 4.253906 -1.3125 4.390625 -1.460938 4.515625 -1.609375 C 4.546875 -1.628906 4.59375 -1.679688 4.65625 -1.765625 C 4.726562 -1.847656 4.769531 -1.890625 4.78125 -1.890625 C 4.8125 -1.890625 4.828125 -1.863281 4.828125 -1.8125 C 4.828125 -1.78125 4.8125 -1.726562 4.78125 -1.65625 C 4.75 -1.59375 4.710938 -1.539062 4.671875 -1.5 C 4.585938 -1.40625 4.46875 -1.273438 4.3125 -1.109375 C 4.164062 -0.953125 3.992188 -0.785156 3.796875 -0.609375 C 3.609375 -0.429688 3.421875 -0.28125 3.234375 -0.15625 C 3.054688 -0.0390625 2.898438 0.015625 2.765625 0.015625 Z M 2.765625 0.015625 "/></g></g></g></g></g></g></svg>